<svg xmlns="http://www.w3.org/2000/svg" xmlns:xlink="http://www.w3.org/1999/xlink" width="417.576" height="350" viewBox="0 0 417.576 350">
  <defs>
    <linearGradient id="linear-gradient" x1="0.5" y1="-0.227" x2="0.5" y2="0.559" gradientUnits="objectBoundingBox">
      <stop offset="0" stop-color="#3e4980"/>
      <stop offset="0.138" stop-color="#5f6895"/>
      <stop offset="0.443" stop-color="#a3a8c2"/>
      <stop offset="0.699" stop-color="#d4d7e3"/>
      <stop offset="0.892" stop-color="#f3f4f7"/>
      <stop offset="1" stop-color="#fff"/>
    </linearGradient>
  </defs>
  <g id="Group_4205" data-name="Group 4205" transform="translate(-535.285 -133.911)" opacity="0.7">
    <g id="Group_4209" data-name="Group 4209">
      <path id="Path_29438" data-name="Path 29438" d="M878.965,302.961a2.9,2.9,0,0,0-5.733.9c.416,2.7.946,11.169-1.975,14.575a3.893,3.893,0,0,1-2.355,1.354l.266-16.124a4.194,4.194,0,1,0-8.386.035l.758,30.6a3.915,3.915,0,0,1-2.454-1.367c-2.921-3.407-2.391-11.873-1.975-14.575a2.9,2.9,0,0,0-5.733-.9c-.208,1.331-1.885,13.185,3.3,19.24a9.823,9.823,0,0,0,7.011,3.446l.33,13.319h6.331l.459-27.827a9.8,9.8,0,0,0,6.864-3.435C880.851,316.146,879.173,304.292,878.965,302.961Z" fill="#e35048" opacity="0.4"/>
      <path id="Path_29439" data-name="Path 29439" d="M608.637,328.9a1.85,1.85,0,1,0-3.655.572c.266,1.722.6,7.119-1.259,9.29a2.485,2.485,0,0,1-1.5.864l.17-10.279a2.674,2.674,0,1,0-5.346.022l.483,19.506a2.494,2.494,0,0,1-1.565-.871c-1.862-2.172-1.524-7.569-1.259-9.291a1.849,1.849,0,0,0-3.654-.572c-.133.849-1.2,8.406,2.1,12.265a6.259,6.259,0,0,0,4.469,2.2l.211,8.49h4.035l.293-17.738a6.253,6.253,0,0,0,4.376-2.19C609.839,337.3,608.769,329.749,608.637,328.9Z" fill="#e35048" opacity="0.4"/>
      <ellipse id="Ellipse_446" data-name="Ellipse 446" cx="208.788" cy="73.915" rx="208.788" ry="73.915" transform="translate(535.285 336.082)" fill="url(#linear-gradient)"/>
    </g>
    <g id="Group_4211" data-name="Group 4211">
      <g id="Group_4210" data-name="Group 4210">
        <path id="Path_29440" data-name="Path 29440" d="M762.91,320.4s-.122,7.113,0,7.825-2.784,4.881-3.972,4.7-3.562-.581-3.905-.977-.192-1.328-.069-2.181,1.01-8.6,1.01-8.995S761.59,319.322,762.91,320.4Z" fill="#ffd3bc"/>
        <path id="Path_29441" data-name="Path 29441" d="M758.3,327.82c-1.486.8-2.319,3.245-2.53,3.276s-.6-.031-.6-.272.06-1.056-.211-1.056-.574,1.328-.634,3.259-.747,6.535,0,7.121c.469.367,4.768,2.625,4.888,2.927s-.09,2.414.272,2.746,1.207,1.146,1.871,1.177,4.5.422,6.306,0,4.1-1.3,4.164-1.539-.452-5.371-1.026-6.005-4.707-6.307-5.039-6.82a5.854,5.854,0,0,1-.573-2.474,3.188,3.188,0,0,0-1.875-2.685A8.531,8.531,0,0,0,758.3,327.82Z" fill="#00a396"/>
        <path id="Path_29442" data-name="Path 29442" d="M719.555,324.517s0,4.142-.12,4.855,2.785,4.881,3.972,4.7,3.562-.58,3.905-.976.192-1.329.07-2.181-.888-5.629-.888-6.025S720.874,323.435,719.555,324.517Z" fill="#ffd3bc"/>
        <path id="Path_29443" data-name="Path 29443" d="M723.378,233.11c-1.68,6.111-4.859,27.047-4.859,37.221s-1.018,36.116-1.018,40.058-.424,13.723.6,14.233a10.184,10.184,0,0,0,6.622,1.528c3.226-.509,4.076-2.547,4.16-4.415s.849-15.282,1.614-20.461,3.48-15.168,5.263-21.593,5.944-19.344,7.047-19.294,7.979,28.353,8.552,29.957,1.665,24.4,1.736,26.308,0,3.754,1.2,4.533,4.887,2.691,6.8,2.833,3.187-2.9,3.541-3.825.982-31.4.756-39.767.434-23.957.048-29.042-1.63-15.982-2.422-18.274S723.378,233.11,723.378,233.11Z" fill="#00164b"/>
        <path id="Path_29444" data-name="Path 29444" d="M711.509,162.077c1.6-1.782,9.09-10.219,10.575-10.516s5.1-.95,5.907-1.782,4.216-11.537,2.866-13.484-6.558-1.394-8.136,1.92-1.5,5.05-4.1,7.339-13.951,11.565-15.007,12.5,1.039,5.49,2.7,6.279S711.509,162.077,711.509,162.077Z" fill="#ffd3bc"/>
        <path id="Path_29445" data-name="Path 29445" d="M732.2,164.647c-3.825.8-10.179,1.481-12.277,2.159s-10.363,3.578-10.3,2.345,3.825-6.663,3.146-7.218-4.75-1.234-5.428-2.1-1.6-2.9-2.53-2.652-11.653,10.239-10.919,14.065c1.732,9.019,27.087,15.591,27.665,19.525s-1.967,41.652-.578,43.04,16.082,6.711,23.487,7.174,20.394-2.117,21.1-4.067-3.613-39.425-3.112-39.425.644,11.8,6.283,14.847c3.724,2.014,8.845-.06,9.826-1.171s-3.5-16.8-5.528-22.084-3.966-16.219-8.55-20.1-11.053-3.219-13.281-4.13-9.7-.259-11.585-.455A68.606,68.606,0,0,0,732.2,164.647Z" fill="#00a396"/>
        <path id="Path_29446" data-name="Path 29446" d="M779.968,204.081s-6.593,1.993-7.108,2.679-1.429,3.429,0,4.572,3,2,4.691.68,3.241-3.095,4.221-3.319,3.909.2,5.139-.286,3.565-9.81,2.623-10.375S779.968,204.081,779.968,204.081Z" fill="#ffd3bc"/>
        <path id="Path_29447" data-name="Path 29447" d="M732.225,163.386c-2.128-.441-6.236-4.459-6.613-8.541-.367-3.978-3.292-15.156,6.89-19.349,9.553-3.934,19.384.114,20.8,4.965,1.32,4.531-9.894,4.735-14.006,7.685s-4.391,4.91-5.417,4.443S732.225,163.386,732.225,163.386Z" fill="#3e4980"/>
        <path id="Path_29448" data-name="Path 29448" d="M732.053,155.423c-.135,1.822-.593,10.634.17,11.931.7,1.191,1.945,4.654,6.828,4.5s8.049-5.035,8.317-5.608-.306-7.629-.306-8.812-6.561-3.967-9.193-3.891S732.18,153.71,732.053,155.423Z" fill="#ffd3bc"/>
        <path id="Path_29449" data-name="Path 29449" d="M732.053,155.423c-.135,1.822-.593,10.634.17,11.931.7,1.191,1.945,4.654,6.828,4.5s8.049-5.035,8.317-5.608-.306-7.629-.306-8.812-6.561-3.967-9.193-3.891S732.18,153.71,732.053,155.423Z" fill="#0f1221" opacity="0.1"/>
        <path id="Path_29450" data-name="Path 29450" d="M732.5,155.449c.551-.016-.1,3.342.9,4.44s5.34,6.821,9.934,6.261c3.974-.483,3.4-3.907,3.976-6.726.52-2.56,2.172-2.78,2.752-9.462.224-2.587,1.447-6.635-.8-7.383s-10.676-2.744-12.771,0-2.295,9.328-3.392,8.48-3.392-4.988-4.739-2.744S729.558,155.534,732.5,155.449Z" fill="#ffd3bc"/>
        <path id="Path_29451" data-name="Path 29451" d="M767.971,189.624,754.6,206.53a1.328,1.328,0,0,0,1.064,2.152l24.716-.42a1.327,1.327,0,0,0,1.041-.532l12.633-16.881a1.206,1.206,0,0,0-.976-1.928l-24.075.2A1.327,1.327,0,0,0,767.971,189.624Z" fill="#e02229"/>
        <path id="Path_29452" data-name="Path 29452" d="M789.114,196.433c-1.3.131-3.191.863-3.191,1.543s1.517.867,1.935.931.968.194.811.4-.47,1.256-1.307,1.073a51.2,51.2,0,0,0-5.206-.235c-.706,0-1.543.5-1.6,1.02s-.209.628-.627.654-1.178.418-1.178,1.1,1.681,1.293,1.681,1.533a29.973,29.973,0,0,0,3.942,2.628c.646.374,1.853,1.326,2.533,1.326a2.06,2.06,0,0,0,1.9-1.581c.085-.935,1.428-1.615,1.445-2.074s-.425-.8-.373-1.088,1.224-.7,1.224-1.428a8.289,8.289,0,0,0-.527-2.023c-.068-.306-.341-.969-.068-1.054s1.224-.969,1.054-1.785S789.715,196.373,789.114,196.433Z" fill="#ffd3bc"/>
        <path id="Path_29453" data-name="Path 29453" d="M724.037,328.963c1.485.8,2.319,3.245,2.53,3.275s.6-.03.6-.271-.06-1.056.212-1.056.573,1.327.633,3.258.747,6.536,0,7.122c-.468.367-4.767,2.625-4.888,2.927s.091,2.414-.272,2.745-1.207,1.147-1.87,1.177-4.5.423-6.307,0-4.1-1.3-4.164-1.539.453-5.371,1.026-6,4.707-6.307,5.039-6.82a5.854,5.854,0,0,0,.573-2.474,3.19,3.19,0,0,1,1.875-2.685A8.534,8.534,0,0,1,724.037,328.963Z" fill="#00a396"/>
      </g>
    </g>
    <text id="Opps_No_Data_Found" data-name="Opps! No Data Found" transform="translate(743.917 453.956)" fill="#00164b" font-size="19.002" font-family="Nunito-Bold, Nunito" font-weight="700"><tspan x="-94.517" y="0">No Data Found</tspan></text>
  </g>
</svg>
